<svg height="512pt" viewBox="0 -39 512 512" width="512pt" xmlns="http://www.w3.org/2000/svg"><path d="M177.332 0H98.668c-11.047 0-20 8.953-20 20v157.336c0 11.043 8.953 20 20 20h78.668c11.043 0 20-8.957 20-20V20c-.004-11.047-8.957-20-20.004-20zm-20 157.336h-38.668V40h38.668zM0 177.336V20C0 8.953 8.953 0 20 0s20 8.953 20 20v157.336c0 11.043-8.953 20-20 20s-20-8.957-20-20zM98.668 236H20c-11.047 0-20 8.953-20 20v157.336c0 11.043 8.953 20 20 20h78.668c11.047 0 20-8.957 20-20V256c0-11.047-8.957-20-20-20zm-20 157.336H40V276h38.668zM197.332 256v157.336c0 11.043-8.953 20-20 20s-20-8.957-20-20V256c0-11.047 8.953-20 20-20s20 8.953 20 20zm137.336-20H256c-11.047 0-20 8.953-20 20v157.336c0 11.043 8.953 20 20 20h78.668c11.047 0 20-8.957 20-20V256c0-11.047-8.957-20-20-20zm-20 157.336H276V276h38.668zM433.332 256v157.336c0 11.043-8.953 20-20 20s-20-8.957-20-20V256c0-11.047 8.953-20 20-20s20 8.953 20 20zM512 256v157.336c0 11.043-8.953 20-20 20s-20-8.957-20-20V256c0-11.047 8.953-20 20-20s20 8.953 20 20zM413.332 0h-78.668c-11.043 0-20 8.953-20 20v157.336c0 11.043 8.957 20 20 20h78.668c11.047 0 20-8.957 20-20V20c0-11.047-8.953-20-20-20zm-20 157.336h-38.668V40h38.668zm-157.332 20V20c0-11.047 8.953-20 20-20s20 8.953 20 20v157.336c0 11.043-8.953 20-20 20s-20-8.957-20-20zM512 20v157.336c0 11.043-8.953 20-20 20s-20-8.957-20-20V20c0-11.047 8.953-20 20-20s20 8.953 20 20zm0 0"/></svg>