<svg height="512pt" viewBox="0 -39 512 512" width="512pt" xmlns="http://www.w3.org/2000/svg"><path d="m177.332031 0h-78.664062c-11.046875 0-20 8.953125-20 20v157.335938c0 11.042968 8.953125 20 20 20h78.667969c11.042968 0 20-8.957032 20-20v-157.335938c-.003907-11.046875-8.957032-20-20.003907-20zm-20 157.335938h-38.667969v-117.335938h38.667969zm-157.332031 20v-157.335938c0-11.046875 8.953125-20 20-20s20 8.953125 20 20v157.335938c0 11.042968-8.953125 20-20 20s-20-8.957032-20-20zm98.667969 58.664062h-78.667969c-11.046875 0-20 8.953125-20 20v157.335938c0 11.042968 8.953125 20 20 20h78.667969c11.046875 0 20-8.957032 20-20v-157.335938c0-11.046875-8.957031-20-20-20zm-20 157.335938h-38.667969v-117.335938h38.667969zm118.664062-137.335938v157.335938c0 11.042968-8.953125 20-20 20s-20-8.957032-20-20v-157.335938c0-11.046875 8.953125-20 20-20s20 8.953125 20 20zm137.335938-20h-78.667969c-11.046875 0-20 8.953125-20 20v157.335938c0 11.042968 8.953125 20 20 20h78.667969c11.046875 0 20-8.957032 20-20v-157.335938c0-11.046875-8.957031-20-20-20zm-20 157.335938h-38.667969v-117.335938h38.667969zm118.664062-137.335938v157.335938c0 11.042968-8.953125 20-20 20s-20-8.957032-20-20v-157.335938c0-11.046875 8.953125-20 20-20s20 8.953125 20 20zm78.667969 0v157.335938c0 11.042968-8.953125 20-20 20s-20-8.957032-20-20v-157.335938c0-11.046875 8.953125-20 20-20s20 8.953125 20 20zm-98.667969-256h-78.667969c-11.042968 0-20 8.953125-20 20v157.335938c0 11.042968 8.957032 20 20 20h78.667969c11.046875 0 20-8.957032 20-20v-157.335938c0-11.046875-8.953125-20-20-20zm-20 157.335938h-38.667969v-117.335938h38.667969zm-157.332031 20v-157.335938c0-11.046875 8.953125-20 20-20s20 8.953125 20 20v157.335938c0 11.042968-8.953125 20-20 20s-20-8.957032-20-20zm276-157.335938v157.335938c0 11.042968-8.953125 20-20 20s-20-8.957032-20-20v-157.335938c0-11.046875 8.953125-20 20-20s20 8.953125 20 20zm0 0"/></svg>